<mxfile host="app.diagrams.net" modified="2023-05-23T21:48:58.297Z" agent="Mozilla/5.0 (Windows NT 10.0; Win64; x64) AppleWebKit/537.36 (KHTML, like Gecko) Chrome/113.0.0.0 Safari/537.36" etag="E6VKZrAOMHcLBg4u142e" version="21.1.7" type="device">
  <diagram id="C5RBs43oDa-KdzZeNtuy" name="Page-1">
    <mxGraphModel dx="537" dy="975" grid="1" gridSize="10" guides="1" tooltips="1" connect="1" arrows="1" fold="1" page="1" pageScale="1" pageWidth="827" pageHeight="1169" math="0" shadow="0">
      <root>
        <mxCell id="WIyWlLk6GJQsqaUBKTNV-0" />
        <mxCell id="WIyWlLk6GJQsqaUBKTNV-1" parent="WIyWlLk6GJQsqaUBKTNV-0" />
        <mxCell id="WIyWlLk6GJQsqaUBKTNV-2" value="" style="rounded=0;html=1;jettySize=auto;orthogonalLoop=1;fontSize=11;endArrow=block;endFill=0;endSize=8;strokeWidth=1;shadow=0;labelBackgroundColor=none;edgeStyle=orthogonalEdgeStyle;" parent="WIyWlLk6GJQsqaUBKTNV-1" source="WIyWlLk6GJQsqaUBKTNV-3" edge="1">
          <mxGeometry relative="1" as="geometry">
            <mxPoint x="220" y="170" as="targetPoint" />
          </mxGeometry>
        </mxCell>
        <mxCell id="WIyWlLk6GJQsqaUBKTNV-3" value="Start&lt;br&gt;" style="rounded=1;whiteSpace=wrap;html=1;fontSize=12;glass=0;strokeWidth=1;shadow=0;" parent="WIyWlLk6GJQsqaUBKTNV-1" vertex="1">
          <mxGeometry x="160" y="80" width="120" height="40" as="geometry" />
        </mxCell>
        <mxCell id="DNDJjfQ4BTlHaHekZOGO-3" style="edgeStyle=orthogonalEdgeStyle;rounded=0;orthogonalLoop=1;jettySize=auto;html=1;exitX=0.5;exitY=1;exitDx=0;exitDy=0;entryX=0.5;entryY=0;entryDx=0;entryDy=0;" edge="1" parent="WIyWlLk6GJQsqaUBKTNV-1" source="DNDJjfQ4BTlHaHekZOGO-1" target="DNDJjfQ4BTlHaHekZOGO-2">
          <mxGeometry relative="1" as="geometry" />
        </mxCell>
        <mxCell id="DNDJjfQ4BTlHaHekZOGO-1" value="generate word" style="rounded=1;whiteSpace=wrap;html=1;" vertex="1" parent="WIyWlLk6GJQsqaUBKTNV-1">
          <mxGeometry x="160" y="170" width="120" height="60" as="geometry" />
        </mxCell>
        <mxCell id="DNDJjfQ4BTlHaHekZOGO-5" style="edgeStyle=orthogonalEdgeStyle;rounded=0;orthogonalLoop=1;jettySize=auto;html=1;exitX=0.5;exitY=1;exitDx=0;exitDy=0;entryX=0.5;entryY=0;entryDx=0;entryDy=0;" edge="1" parent="WIyWlLk6GJQsqaUBKTNV-1" source="DNDJjfQ4BTlHaHekZOGO-2" target="DNDJjfQ4BTlHaHekZOGO-4">
          <mxGeometry relative="1" as="geometry" />
        </mxCell>
        <mxCell id="DNDJjfQ4BTlHaHekZOGO-2" value="ask to guess letter" style="rounded=1;whiteSpace=wrap;html=1;" vertex="1" parent="WIyWlLk6GJQsqaUBKTNV-1">
          <mxGeometry x="160" y="280" width="120" height="60" as="geometry" />
        </mxCell>
        <mxCell id="DNDJjfQ4BTlHaHekZOGO-8" style="edgeStyle=orthogonalEdgeStyle;rounded=0;orthogonalLoop=1;jettySize=auto;html=1;exitX=1;exitY=0.5;exitDx=0;exitDy=0;" edge="1" parent="WIyWlLk6GJQsqaUBKTNV-1" source="DNDJjfQ4BTlHaHekZOGO-4" target="DNDJjfQ4BTlHaHekZOGO-6">
          <mxGeometry relative="1" as="geometry" />
        </mxCell>
        <mxCell id="DNDJjfQ4BTlHaHekZOGO-9" style="edgeStyle=orthogonalEdgeStyle;rounded=0;orthogonalLoop=1;jettySize=auto;html=1;exitX=0;exitY=0.5;exitDx=0;exitDy=0;entryX=0.5;entryY=0;entryDx=0;entryDy=0;" edge="1" parent="WIyWlLk6GJQsqaUBKTNV-1" source="DNDJjfQ4BTlHaHekZOGO-4" target="DNDJjfQ4BTlHaHekZOGO-7">
          <mxGeometry relative="1" as="geometry" />
        </mxCell>
        <mxCell id="DNDJjfQ4BTlHaHekZOGO-4" value="is it a good&amp;nbsp;&lt;br&gt;letter?" style="rhombus;whiteSpace=wrap;html=1;" vertex="1" parent="WIyWlLk6GJQsqaUBKTNV-1">
          <mxGeometry x="180" y="400" width="80" height="80" as="geometry" />
        </mxCell>
        <mxCell id="DNDJjfQ4BTlHaHekZOGO-14" style="edgeStyle=orthogonalEdgeStyle;rounded=0;orthogonalLoop=1;jettySize=auto;html=1;entryX=0.5;entryY=0;entryDx=0;entryDy=0;" edge="1" parent="WIyWlLk6GJQsqaUBKTNV-1" source="DNDJjfQ4BTlHaHekZOGO-6" target="DNDJjfQ4BTlHaHekZOGO-13">
          <mxGeometry relative="1" as="geometry" />
        </mxCell>
        <mxCell id="DNDJjfQ4BTlHaHekZOGO-6" value="loose a life" style="rounded=1;whiteSpace=wrap;html=1;" vertex="1" parent="WIyWlLk6GJQsqaUBKTNV-1">
          <mxGeometry x="280" y="520" width="120" height="60" as="geometry" />
        </mxCell>
        <mxCell id="DNDJjfQ4BTlHaHekZOGO-15" style="edgeStyle=orthogonalEdgeStyle;rounded=0;orthogonalLoop=1;jettySize=auto;html=1;" edge="1" parent="WIyWlLk6GJQsqaUBKTNV-1" source="DNDJjfQ4BTlHaHekZOGO-7" target="DNDJjfQ4BTlHaHekZOGO-12">
          <mxGeometry relative="1" as="geometry" />
        </mxCell>
        <mxCell id="DNDJjfQ4BTlHaHekZOGO-7" value="replease the blanket with letter" style="rounded=1;whiteSpace=wrap;html=1;" vertex="1" parent="WIyWlLk6GJQsqaUBKTNV-1">
          <mxGeometry x="60" y="520" width="120" height="60" as="geometry" />
        </mxCell>
        <mxCell id="DNDJjfQ4BTlHaHekZOGO-10" value="no" style="text;html=1;align=center;verticalAlign=middle;resizable=0;points=[];autosize=1;strokeColor=none;fillColor=none;" vertex="1" parent="WIyWlLk6GJQsqaUBKTNV-1">
          <mxGeometry x="270" y="405" width="40" height="30" as="geometry" />
        </mxCell>
        <mxCell id="DNDJjfQ4BTlHaHekZOGO-11" value="yes" style="text;html=1;align=center;verticalAlign=middle;resizable=0;points=[];autosize=1;strokeColor=none;fillColor=none;" vertex="1" parent="WIyWlLk6GJQsqaUBKTNV-1">
          <mxGeometry x="120" y="405" width="40" height="30" as="geometry" />
        </mxCell>
        <mxCell id="DNDJjfQ4BTlHaHekZOGO-16" style="edgeStyle=orthogonalEdgeStyle;rounded=0;orthogonalLoop=1;jettySize=auto;html=1;exitX=0;exitY=0.5;exitDx=0;exitDy=0;entryX=0;entryY=0.5;entryDx=0;entryDy=0;" edge="1" parent="WIyWlLk6GJQsqaUBKTNV-1" source="DNDJjfQ4BTlHaHekZOGO-12" target="DNDJjfQ4BTlHaHekZOGO-2">
          <mxGeometry relative="1" as="geometry">
            <Array as="points">
              <mxPoint x="40" y="660" />
              <mxPoint x="40" y="310" />
            </Array>
          </mxGeometry>
        </mxCell>
        <mxCell id="DNDJjfQ4BTlHaHekZOGO-23" style="edgeStyle=orthogonalEdgeStyle;rounded=0;orthogonalLoop=1;jettySize=auto;html=1;" edge="1" parent="WIyWlLk6GJQsqaUBKTNV-1" source="DNDJjfQ4BTlHaHekZOGO-12">
          <mxGeometry relative="1" as="geometry">
            <mxPoint x="220" y="710" as="targetPoint" />
          </mxGeometry>
        </mxCell>
        <mxCell id="DNDJjfQ4BTlHaHekZOGO-12" value="are all filled?" style="rhombus;whiteSpace=wrap;html=1;" vertex="1" parent="WIyWlLk6GJQsqaUBKTNV-1">
          <mxGeometry x="80" y="620" width="80" height="80" as="geometry" />
        </mxCell>
        <mxCell id="DNDJjfQ4BTlHaHekZOGO-17" style="edgeStyle=orthogonalEdgeStyle;rounded=0;orthogonalLoop=1;jettySize=auto;html=1;entryX=1;entryY=0.5;entryDx=0;entryDy=0;" edge="1" parent="WIyWlLk6GJQsqaUBKTNV-1" source="DNDJjfQ4BTlHaHekZOGO-13" target="DNDJjfQ4BTlHaHekZOGO-2">
          <mxGeometry relative="1" as="geometry">
            <Array as="points">
              <mxPoint x="410" y="660" />
              <mxPoint x="410" y="310" />
            </Array>
          </mxGeometry>
        </mxCell>
        <mxCell id="DNDJjfQ4BTlHaHekZOGO-22" style="edgeStyle=orthogonalEdgeStyle;rounded=0;orthogonalLoop=1;jettySize=auto;html=1;" edge="1" parent="WIyWlLk6GJQsqaUBKTNV-1" source="DNDJjfQ4BTlHaHekZOGO-13" target="DNDJjfQ4BTlHaHekZOGO-21">
          <mxGeometry relative="1" as="geometry" />
        </mxCell>
        <mxCell id="DNDJjfQ4BTlHaHekZOGO-13" value="have they run out of lifes?" style="rhombus;whiteSpace=wrap;html=1;" vertex="1" parent="WIyWlLk6GJQsqaUBKTNV-1">
          <mxGeometry x="300" y="620" width="80" height="80" as="geometry" />
        </mxCell>
        <mxCell id="DNDJjfQ4BTlHaHekZOGO-18" value="No&lt;br&gt;" style="text;html=1;align=center;verticalAlign=middle;resizable=0;points=[];autosize=1;strokeColor=none;fillColor=none;" vertex="1" parent="WIyWlLk6GJQsqaUBKTNV-1">
          <mxGeometry x="40" y="640" width="40" height="30" as="geometry" />
        </mxCell>
        <mxCell id="DNDJjfQ4BTlHaHekZOGO-19" value="No" style="text;html=1;align=center;verticalAlign=middle;resizable=0;points=[];autosize=1;strokeColor=none;fillColor=none;" vertex="1" parent="WIyWlLk6GJQsqaUBKTNV-1">
          <mxGeometry x="374" y="630" width="40" height="30" as="geometry" />
        </mxCell>
        <mxCell id="DNDJjfQ4BTlHaHekZOGO-21" value="game over" style="rounded=1;whiteSpace=wrap;html=1;" vertex="1" parent="WIyWlLk6GJQsqaUBKTNV-1">
          <mxGeometry x="162" y="730" width="120" height="60" as="geometry" />
        </mxCell>
      </root>
    </mxGraphModel>
  </diagram>
</mxfile>
